Patient4_TMGait_0pt3_01_left_20_EMG.mot
version=1
nRows=39
nColumns=33
inDegrees=no
endheader
time	1LAddLong	2LGlutMax	3LGlutMed	4LIliopsoas	5LSemiMemb	6LBicFemLong	7LRecFem	8LVastMed	9LVastLat	10LGasMed	11LTibAnt	12lTibPost	13LPeroneusLong	14LSol	15LExtDigLong	16LFlexDigLong	17RAddLong	18RGlutMax	19RGlutMed	20RIliopsoas	21RSemiMemb	22RBicFemLong	23RRecFem	24RVastMed	25RVastLat	26RGasMed	27RTibAnt	28RTibPost	29RPeroneusLong	30RSol	31RExtDigLong	32RFlexDigLong
37.4	0.006714	0.13229	0.063324	-0.009766	-0.007782	0.00946	-0.001678	0.011902	-0.03418	-0.009003	-0.090637	0.004425	0.040436	-0.14328	0.78827	0.004425	-0.059509	-0.28366	-0.5101	0.077667	0.13245	0.31677	0.20569	-0.51804	-0.70633	-0.003967	0.12863	-0.002899	0.48981	-0.072937	-0.001221	-0.012207
37.401	0.005798	0.12833	0.058136	-0.011749	-0.010834	0.003967	0.031281	0.00412	-0.024567	0.002136	-0.027161	-0.000153	0.005341	-0.090637	-0.2945	0.011139	-0.032806	-0.21622	-0.35385	0.18509	0.0177	0.18982	0.13733	-0.72388	-0.3186	-0.012817	0.096741	-0.003052	0.63858	0.06424	-0.001068	-0.0177
37.402	0.001526	0.13016	0.018616	0.028839	-0.016327	0.011292	0.032043	-0.000153	-0.021362	-0.021057	-0.13947	-0.000305	0.032349	-0.013428	-0.85388	0.004272	-0.02533	-0.22385	0.36713	0.12817	0.029602	0.30456	0.11063	-0.37506	0.022888	-0.010071	0.10696	-0.005188	0.67566	0.065613	-0.000916	-0.013885
37.403	-0.000153	0.14099	0.006256	0.053406	-0.014343	0.003815	0.036469	0.003967	-0.029907	-0.00473	-0.015564	0.002747	0.009766	-0.039368	-0.63934	-0.006714	-0.00061	-0.19012	0.12314	0.070496	-0.043182	0.1445	0.21805	-0.11444	0.13611	-0.007782	0.046997	-0.003662	-0.72342	0.028534	-0.007324	-0.014648
37.404	0.007477	0.10559	-0.011597	0.021057	-0.018158	-0.016479	0.021362	0.005341	-0.016632	-0.010681	0.010223	0.000153	0.01297	-0.063019	-0.36057	0.000458	0.018616	-0.16678	0.013885	0.018463	-0.084076	0.098114	0.18616	-0.025482	0.22507	-0.001831	-0.064087	-0.00473	-0.5632	-0.088043	-0.004425	-0.011444
37.405	0.001068	0.093536	-0.016632	-0.018616	-0.008698	-0.016479	0.024261	-0.001373	-0.023499	0.001678	0.11261	0.003662	-0.013885	-0.03418	0.034332	-0.001526	0.027466	-0.066223	-0.20981	0.019379	-0.06012	-0.23056	-0.031281	0.047607	0.28503	0.003815	-0.033722	-0.005951	-0.2272	-0.11841	-0.001373	-0.012054
37.406	0.000763	0.10544	-0.019073	-0.01709	-0.009003	-0.015259	0.030212	0.007324	-0.002747	0.015259	0.091858	0.00946	-0.040741	-0.052185	-0.040894	-0.001678	0.030975	-0.012665	-0.47211	0.000305	-0.061188	-0.30807	-0.24689	0.15076	0.42587	-0.003967	0.052795	-0.002747	-0.018311	-0.12756	-0.000305	-0.01236
37.407	0.005646	0.09491	-0.037842	0.010834	-0.014801	-0.01358	-0.005798	0.003967	-0.002136	-0.018616	-0.042572	0.006866	0.061493	-0.051727	-0.076141	-0.001526	0.002899	0.045624	-0.26901	0.001221	-0.041351	-0.023346	-0.34653	0.067139	0.46219	-0.006104	0.000305	-0.001831	-0.31204	-0.025482	-0.001984	-0.011597
37.408	0.004425	0.13153	-0.008087	0.009155	-0.011597	-0.041504	-0.010223	0.004272	0.002899	-0.030365	-0.054016	0.00824	0.12009	0.068817	0.10361	-0.00946	0.007935	0.12848	0.088806	-0.012817	-0.025024	0.16678	-0.46356	0.10742	0.37155	-0.009155	-0.053558	-0.00061	0.67276	0.014648	0.00061	-0.010223
37.409	0.007629	0.12726	0.01709	0.006714	-0.009918	-0.01358	-0.021057	0.005798	-0.001068	-0.027466	-0.090332	0.001831	0.081635	-0.05188	0.12421	-0.001373	-0.005493	0.078583	0.99518	-0.020447	0.051422	0.50018	-0.38757	0.30716	0.32791	-0.00946	0.009003	-0.002594	0.18158	-0.041199	0.002136	-0.007477
37.41	0.004425	0.10849	0.005951	0.018921	-0.013428	-0.032349	-0.000458	0.00412	0.003204	0.014343	0.032043	-0.001068	-0.01709	-0.14191	0.21164	0.001526	-0.009918	0.12054	0.94101	0.001373	0.075226	0.62576	-0.31235	0.23911	-0.087128	-0.001068	0.01297	-0.003357	-2.084	-0.18173	-0.003662	0.003967
37.411	0.002441	0.12726	0.033417	0.007782	-0.011902	-0.03006	-0.028839	0.005951	0.000153	0.003967	0.001526	-0.001526	-0.020599	-0.084839	0.26352	-0.005188	0.021362	0.093384	0.58868	-0.037689	0.053558	0.58548	-0.088654	-0.004578	-0.43579	-0.003052	0.004883	-0.001678	-1.1024	-0.063324	-0.000458	0.005188
37.412	0.005493	0.11963	0.011597	-0.013428	-0.0177	-0.036621	-0.010223	0.003204	-0.000458	-0.010376	-0.011444	0.00412	-0.00946	-0.016174	0.17944	-0.006866	0.071106	0.10269	0.77652	0.011139	0.032043	0.29556	0.16998	-0.14862	-0.26657	-0.006256	-0.042419	-0.000153	0.55847	0.022888	0.001068	-0.003052
37.413	0.005798	0.11322	-0.009918	-0.00473	-0.005341	-0.055695	-0.02655	0.005188	0.006104	-0.004272	-0.030823	-0.001068	0.010529	0.001831	0.069885	0.001068	0.080109	-0.056763	0.49255	0.047913	-0.00412	-0.18219	0.3035	-0.18158	-0.20981	-0.007019	-0.086365	0.003815	1.1171	-0.030365	-0.000305	-0.008545
37.414	0.010681	0.061493	0.038757	-0.002289	0.003815	-0.042572	-0.021667	0.007477	0.008545	-0.012207	0.027618	0.001678	-0.008545	0.011902	0.052338	-0.005341	0.07019	-0.088043	-0.1828	0.047607	-0.055847	-0.35507	0.40573	-0.28885	-0.15335	-0.009613	-0.076141	-0.000305	0.36789	-0.015259	-0.000153	-0.011902
37.415	0.010529	0.07431	0.003662	-0.011902	-0.011597	-0.054474	0.005646	0.002594	0.006714	-0.006866	-0.00061	0.007477	0.002899	-0.00946	0.03952	-0.004578	0.039215	-0.22003	-0.041656	0.013733	-0.024261	-0.39154	0.36255	0.5864	-0.14496	-0.00885	0.014191	-0.001984	0.01709	0.027161	0.000305	-0.01297
37.416	0.00946	0.085144	-0.006714	0.002441	-0.00885	-0.057983	-0.010834	-0.00412	0.012512	-0.00061	0.002289	0	-0.018158	-0.057373	0.5484	0.000305	0.028381	-0.20157	-0.066833	0.030975	0.010223	-0.40619	0.041962	0.82016	-0.11566	-0.008698	0.059204	-0.001221	-0.070953	0.007172	-0.002747	-0.010681
37.417	0.015869	0.080872	-0.028992	0.032043	-0.010223	-0.058136	0.001526	0.006256	0.016174	-0.016022	0.024109	0.007324	0.002899	-0.031281	0.045929	-0.007019	0.048676	-0.19745	0.20462	0.055084	0.040283	-0.23209	-0.1947	0.34698	-0.001221	-0.010529	0.079651	-0.000153	0.072784	-0.018311	0.005035	-0.01236
37.418	0.015717	0.054321	-0.027161	0.024719	-0.010223	-0.067749	0.007935	-0.002594	0.01236	0.006714	0.053864	0.005646	0.001221	-0.046539	-0.076294	0.013885	0.058289	-0.20981	0.27954	0.010223	0.028839	-0.1268	-0.10193	-0.016937	-0.00473	-0.008698	0.097961	-0.006256	0.56519	-0.083618	0.003357	-0.019226
37.419	0.014496	0.067444	-0.019379	-0.002594	-0.010529	-0.078888	0.005341	0.00412	0.012054	0.003815	0.066071	-0.00473	-0.002899	-0.028381	-0.076141	0.005035	0.031738	-0.10284	0.43472	-0.037079	-0.001526	-0.072327	-0.18448	-0.55924	-0.031281	-0.016174	0.13275	-0.000305	0.47897	-0.081482	0.000458	-0.0177
37.42	0.005188	0.05249	0.007477	0.000153	-0.009918	-0.043488	-0.014648	0.001221	0.006409	-0.016479	-0.02533	0.006561	0.002747	-0.009918	0.059052	0.005646	0.000763	-0.090637	0.43274	-0.068054	-0.035095	0.059357	-0.30075	-0.72967	0.091858	-0.013275	0.097504	-0.000153	0.18219	0.047607	0.009003	-0.01709
37.421	0.006714	0.034332	0.032043	-0.003204	-0.013733	-0.027466	-0.006866	0.006714	0.005493	-0.031738	-0.011902	0.000305	0.032043	0.00412	-0.052795	-0.002441	-0.043945	-0.030518	1.0225	-0.2095	-0.042725	0.045471	-0.3714	-0.3566	0.46432	-0.002441	0.056152	-0.003967	-0.84137	0.084839	0.001984	-0.005341
37.422	0.001678	0.029144	0.042725	0.004272	-0.012054	-0.021667	-0.004425	0.000153	0.016327	-0.026855	0.024719	0.007477	0.027008	-0.001526	-0.090179	-0.007019	-0.022278	-0.03952	0.82108	-0.233	-0.084229	0.000305	0.025177	-0.31769	0.5545	0.007019	-0.04303	-0.010071	-0.52368	0.044403	-0.007324	-0.001526
37.423	0.005341	0.070496	0.050964	-0.00351	-0.01297	-0.022888	-0.015411	0.003052	0.009613	-0.004425	-0.069427	0.00351	0.028534	-0.042572	-0.081482	-0.003204	0.000305	-0.13596	-0.095978	-0.14145	-0.015717	-0.032043	0.29663	-0.3923	0.59937	-0.003967	-0.016479	-0.003815	-0.47699	0.021973	0.001068	-0.006256
37.424	0.007172	0.049591	0.022736	0.012207	-0.013275	-0.039978	-0.018768	0.00473	0.001068	0.014343	-0.057678	-0.002747	-0.034027	-0.069427	0.031433	-0.007629	-0.008545	-0.11993	-0.33951	-0.022583	0.028839	-0.015106	0.29159	-0.4892	0.60684	-0.005188	-0.005646	-0.008087	-0.32913	0.001984	-0.000916	-0.001678
37.425	0.002747	0.050659	0.006409	0.037689	-0.009613	-0.020447	-0.007172	0.001221	0.005798	0.00824	-0.085144	0.00061	-0.006714	-0.042114	0.21393	-0.003815	-0.038452	-0.24017	-0.52368	0.066833	0.056305	0.073242	0.07019	-0.34393	0.54016	-0.005798	0.022125	-0.007935	0.15137	0.23895	-0.005493	-0.00061
37.426	0.002899	0.049744	-0.015106	0.022125	-0.014954	-0.027008	-0.016327	0.005646	0.006714	-0.003662	-0.10559	-0.000458	0.045624	-0.009308	0.20187	0.014191	-0.033875	-0.21515	-0.37994	0.1799	0.049286	0.042114	-0.03006	-0.14954	0.37521	-0.009155	0.00061	-0.00412	-0.063171	0.32684	0.001831	0.000458
37.427	0.009613	0.038147	-0.011597	0.002594	-0.013123	-0.045319	-0.014648	0.00473	0.017548	0.019684	0.091553	-0.001526	-0.016937	0.015259	0.12299	0.005341	-0.047913	-0.21591	-0.73608	0.19928	0.032806	0.054474	-0.17609	-0.2536	0.20187	-0.007935	-0.011902	-0.003662	0.088043	0.082092	0.000305	-0.001068
37.428	0.009613	0.019226	-0.006256	-0.00473	-0.008392	-0.068512	0.007935	-0.002747	0.020752	0.014038	0.32074	0.007477	-0.032654	0.08255	0.21744	0.016632	-0.062103	-0.1329	-0.46265	0.10574	-0.032654	0.083466	-0.36438	-0.11902	-0.0354	-0.002441	-0.029297	-0.007629	0.26718	-0.067139	0.004425	-0.00351
37.429	0.009003	0.037689	0.037689	-0.00061	-0.006561	-0.06424	-0.005493	-0.003662	0.018463	-0.058746	0.3627	-0.002441	0.055389	0.078735	-0.003662	0.007782	-0.033264	-0.008545	0.078583	0.061493	0.035706	0.034943	-0.32288	0.21439	-0.19714	-0.001678	-0.010986	-0.001526	0.076447	-0.071259	0.002747	0.001526
37.43	0.008545	0.026245	0.045471	-0.000305	-0.010376	-0.068359	-0.0354	-0.003357	0.017395	-0.045319	-0.1474	0.002899	0.033417	0.04303	0.067902	0.009003	0.021973	0.022888	0.27329	0.011292	0.049896	-0.087585	-0.15976	0.34683	-0.47546	-0.013123	-0.002441	-0.001373	0.51605	-0.1149	-0.002441	-0.001984
37.431	0.00885	0.052948	0.028839	0.007019	-0.019989	-0.027008	-0.027313	0.001831	0.021973	-0.028229	0.017242	0.002594	-0.004272	-0.006866	-0.4303	0.000305	0.039063	-0.088959	-0.2356	-0.015411	-0.048981	-0.14175	-0.10513	0.4451	-0.21805	-0.018311	0.005646	-0.000763	0.32379	-0.16556	0.003815	-0.00824
37.432	0.018768	0.057678	0.030212	-0.013885	-0.01297	-0.042267	-0.001068	0.007324	0.003357	-0.023804	0.13596	-0.002747	0.028839	-0.007019	-0.50797	0.002594	0.059509	-0.1738	0.036621	-0.00946	-0.096436	-0.20447	0.021667	0.19684	-0.036774	-0.007324	0.016174	-0.008545	-0.1091	-0.1564	-0.000916	-0.002136
37.433	0.024719	0.056	0.014648	-0.00061	-0.00885	-0.027008	0.055084	-0.005798	-0.008698	0.006256	0.06546	0.003204	0.020599	-0.039063	-0.10712	-0.00412	0.063629	-0.19928	-0.39276	0.053558	-0.003357	-0.18997	-0.061188	0.23071	0.1268	0.002289	0.010071	-0.008087	-0.002136	-0.10513	-0.002899	-0.011292
37.434	-0.036011	0.098572	-0.00351	0.014496	-0.006256	-0.00885	0.051117	0.009308	-0.01236	0.005798	-0.26154	0.005951	0.045013	-0.032349	-0.23575	0.005798	0.060425	-0.21805	0.025177	0.063934	0.04776	-0.053253	-0.028381	0.14969	0.084839	0.017853	-0.043945	-0.015564	-0.083923	-0.044403	-0.00061	0.000153
37.435	0.014801	0.11581	0.003662	0.030212	-0.014496	-0.019226	0.042267	-0.012512	-0.009003	0.005646	-0.17807	0.010986	0.050201	-0.087585	-0.27969	-0.002747	0.040283	-0.19928	0.54062	0.059052	0.084686	0.07431	0.069885	-0.076599	-0.095215	0.035095	-0.014954	-0.011749	-0.040283	-0.031586	-0.003204	-0.009918
37.436	0.024567	0.14969	0.005188	0.019073	-0.015564	-0.017395	0.005188	0.010376	-0.005341	-0.005798	-0.13504	0.003967	0.051117	-0.005188	-0.09079	0.007477	0.03891	-0.17364	-0.15121	0.018158	0.041656	0.10193	0.26535	-0.27985	-0.36179	0.006714	0.003052	-0.000458	-0.071869	-0.007935	-0.000916	-0.023804
37.437	0.015717	0.20065	0.030518	0.006256	-0.020142	-0.014496	-0.019226	0.00473	-0.003052	0.015717	-0.046387	0.006409	-0.016785	-0.12787	0.19318	0.001984	0.048523	-0.16922	-0.33157	-0.031586	0.033722	0.069275	0.18723	-0.24429	-0.43488	-0.00824	-0.003815	0.000305	-0.062103	-0.057068	0.002594	-0.022278
37.438	0.00885	0.22614	0.023651	0.020294	-0.016937	0.010376	-0.027161	0.007629	-0.005798	-0.003357	-0.069275	0.00824	0.001678	-0.047607	0.22812	-0.00351	0.044861	-0.13367	0.46371	-0.12573	0.11475	-0.010529	-0.048523	-0.22995	-0.22125	-0.015106	0.009003	-0.012512	-0.35507	-0.12451	0.007629	-0.024414
